<?xml version="1.0" encoding="utf-8"?>
<!-- Generator: Adobe Illustrator 28.2.0, SVG Export Plug-In . SVG Version: 6.00 Build 0)  -->
<svg version="1.1" id="Ebene_2_00000121267825358849405640000007936770969910698390_"
	 xmlns="http://www.w3.org/2000/svg" xmlns:xlink="http://www.w3.org/1999/xlink" x="0px" y="0px" viewBox="0 0 141.3 45.3"
	 style="enable-background:new 0 0 141.3 45.3;" xml:space="preserve">
<style type="text/css">
	.st0{fill:#B1EE81;}
</style>
<g id="Ebene_1-2">
	<path class="st0" d="M139.4,39.5v5.8H64c1.7-1.5,3-3.5,3.8-5.8H139.4z"/>
	<path class="st0" d="M0,0.6v33h6.6v-33H0z"/>
	<path class="st0" d="M26.1,9.8c-2.6,0-4.8,0.8-6.7,2.3v-1.7H13v23.1h6.4v-15c1.6-1.9,3.6-3,5.3-3c3.4,0,5.2,2,5.2,5.8v12.2h6.4V21
		C36.3,14.2,32.2,9.8,26.1,9.8z"/>
	<path class="st0" d="M87.1,15.2v6.1h9.8c-1.3,3.9-4.5,6.6-9.3,6.6c-6.4,0-10.5-5-10.5-10.4c0-7,4.6-11.4,10.8-11.4
		c3,0,7.1,1.1,8.9,5.9h7.1c-2-8.3-9-12.1-16.1-12.1c-9.7,0-17.4,7.1-17.4,17.5c0,9,7.2,16.6,17.2,16.6c5.2,0,8.8-2,11.1-5.3l0.4,4.8
		h5.1V15.2H87.1z"/>
	<path class="st0" d="M134.1,0.6l-10.7,24.2L112.8,0.6h-7.3l14.9,33.2h6.1l14.8-33.2H134.1L134.1,0.6z"/>
	<path class="st0" d="M58.5,10.4v1.3c-1.8-1.2-4.1-1.9-6.6-1.9c-6.4,0-11.5,4.7-11.5,11.6c0,6,5.2,11.2,11.5,11.2
		c2.6,0,4.8-0.7,6.6-1.9v3c0,3.8-2.4,5.8-5.5,5.8H0v5.8h53c4.8,0,8.6-2.1,10.5-5.8c0.8-1.6,1.3-3.6,1.3-5.8V10.4
		C64.8,10.4,58.5,10.4,58.5,10.4z M58.5,24.2c-1.5,2.2-3.6,2.9-5.7,2.9c-3.6,0-6.2-3-6.2-5.7c0-3.7,2.5-6.1,6.2-6.1
		c2.1,0,4.2,0.7,5.7,2.9C58.5,18.2,58.5,24.2,58.5,24.2z"/>
</g>
</svg>
